<svg width="180.34" height="40.36" xmlns="http://www.w3.org/2000/svg">
 <title>logo</title>

 <g>
  <title>background</title>
  <rect fill="none" id="canvas_background" height="402" width="582" y="-1" x="-1"/>
 </g>
 <g>
  <title>Layer 1</title>
  <polygon id="svg_1" fill="#23302c" points="0 29.23 7.15 29.23 7.15 7.26 9.27 7.26 9.27 29.23 16.43 29.23 16.43 1.77 0 1.77 0 29.23"/>
  <path id="svg_2" fill="#23302c" d="m34.1,4.09a6.51,6.51 0 0 0 -2.82,-2.16a10.34,10.34 0 0 0 -4,-0.72a10.09,10.09 0 0 0 -4.07,0.76a6.56,6.56 0 0 0 -4,5.33q-0.19,1.72 -0.19,5.86l0,4.7a58,58 0 0 0 0.2,5.93a6.6,6.6 0 0 0 4.09,5.3a10.33,10.33 0 0 0 4,0.72a10.09,10.09 0 0 0 4.07,-0.76a6.56,6.56 0 0 0 4,-5.33q0.19,-1.72 0.19,-5.86l0,-4.7a58,58 0 0 0 -0.2,-5.93a6.5,6.5 0 0 0 -1.27,-3.14zm-5.66,17.36a13.6,13.6 0 0 1 -0.2,3.07a0.88,0.88 0 0 1 -0.93,0.64a0.85,0.85 0 0 1 -0.91,-0.56a12.57,12.57 0 0 1 -0.2,-2.95l0,-12.81a6.13,6.13 0 0 1 0.35,-2.55a1,1 0 0 1 0.86,-0.43a0.84,0.84 0 0 1 0.87,0.53a8.52,8.52 0 0 1 0.21,2.45l-0.05,12.61z"/>
  <path id="svg_3" fill="#23302c" d="m39.27,21.98q0,1.88 -0.49,2.2a3.53,3.53 0 0 1 -1.8,0.32l0,4.73l1.12,0a27.52,27.52 0 0 0 5.13,-0.34a3.49,3.49 0 0 0 2.4,-1.68a9.11,9.11 0 0 0 0.79,-4.41l0,-15.54l2.13,0l0,22l7.15,0l0,-27.49l-16.43,0l0,20.21z"/>
  <polygon id="svg_4" fill="#23302c" points="64.48 14.16 64.48 1.77 58.52 1.77 58.52 29.23 64.77 29.23 68.48 16.73 68.48 29.23 74.45 29.23 74.45 1.77 68.48 1.77 64.48 14.16"/>
  <polygon id="svg_5" fill="#23302c" points="77.3 29.23 84.45 29.23 84.45 7.26 89.69 7.26 89.69 1.77 77.3 1.77 77.3 29.23"/>
  <path id="svg_6" fill="#23302c" d="m92.64,21.98q0,1.88 -0.49,2.2a3.53,3.53 0 0 1 -1.8,0.32l0,4.73l1.12,0a27.52,27.52 0 0 0 5.08,-0.34a3.49,3.49 0 0 0 2.4,-1.68a9.11,9.11 0 0 0 0.79,-4.41l0,-15.54l2.08,0l0,22l7.15,0l0,-27.49l-16.33,0l0,20.21z"/>
  <path id="svg_7" fill="#23302c" d="m126.71,4.09a6.52,6.52 0 0 0 -2.82,-2.16a10.34,10.34 0 0 0 -4,-0.72a10.09,10.09 0 0 0 -4.07,0.76a6.56,6.56 0 0 0 -4,5.33q-0.19,1.72 -0.19,5.86l0,4.7a58,58 0 0 0 0.2,5.93a6.6,6.6 0 0 0 4.09,5.3a10.33,10.33 0 0 0 4,0.72a10.08,10.08 0 0 0 4.07,-0.76a6.56,6.56 0 0 0 4,-5.33q0.19,-1.72 0.19,-5.86l0,-4.7a58,58 0 0 0 -0.2,-5.93a6.49,6.49 0 0 0 -1.27,-3.14zm-5.66,17.36a13.52,13.52 0 0 1 -0.2,3.07a0.88,0.88 0 0 1 -0.93,0.64a0.85,0.85 0 0 1 -0.91,-0.56a12.56,12.56 0 0 1 -0.2,-2.95l0,-12.81a6.15,6.15 0 0 1 0.3,-2.55a1,1 0 0 1 0.86,-0.43a0.84,0.84 0 0 1 0.87,0.53a8.54,8.54 0 0 1 0.21,2.45l0,12.61z"/>
  <polygon id="svg_8" fill="#23302c" points="129.62 7.28 133.84 7.28 133.84 29.23 140.98 29.23 140.98 7.28 145.22 7.28 145.22 1.78 129.62 1.78 129.62 7.28"/>
  <path id="svg_9" fill="#ff1d25" d="m172.55,0l-17.52,0a7.62,7.62 0 0 0 -7.74,7.45l0,16.73a7.35,7.35 0 0 0 3,5.88l-3.13,8.27l14.8,-6.66l10.59,0a7.62,7.62 0 0 0 7.74,-7.45l0,-16.76a7.62,7.62 0 0 0 -7.74,-7.46z"/>
  <g id="Layer_4">
   <path id="svg_10" fill="gray" d="m3.55,33.05l0.88,0l0,5.28l-0.88,0l0,-3.85l-2.39,3.86l-0.87,0l0,-5.29l0.88,0l0,3.86l2.38,-3.86z"/>
   <path id="svg_11" fill="gray" d="m10,38.34l-0.87,0l0,-2.26l-2.36,0l0,2.26l-0.88,0l0,-5.29l0.88,0l0,2.29l2.36,0l0,-2.29l0.88,0l-0.01,5.29z"/>
   <path id="svg_12" fill="gray" d="m11.18,35.67a3.19,3.19 0 0 1 0.3,-1.4a2.25,2.25 0 0 1 0.82,-1a2.19,2.19 0 0 1 1.25,-0.31a2.13,2.13 0 0 1 1.69,0.75a2.93,2.93 0 0 1 0.65,2l0,0.06a3.22,3.22 0 0 1 -0.34,1.37a2.18,2.18 0 0 1 -2,1.3a2.13,2.13 0 0 1 -1.72,-0.77a2.92,2.92 0 0 1 -0.65,-2zm0.88,0.11a2.31,2.31 0 0 0 0.4,1.41a1.32,1.32 0 0 0 2.12,0a2.53,2.53 0 0 0 0.39,-1.52a2.31,2.31 0 0 0 -0.4,-1.41a1.26,1.26 0 0 0 -1.02,-0.59a1.25,1.25 0 0 0 -1,0.53a2.51,2.51 0 0 0 -0.49,1.55l0,0.03z"/>
   <path id="svg_13" fill="gray" d="m19,37.67a1.24,1.24 0 0 0 0.82,-0.29a1,1 0 0 0 0.39,-0.73l0.83,0a1.68,1.68 0 0 1 -0.3,0.86a2,2 0 0 1 -0.75,0.65a2.23,2.23 0 0 1 -2.65,-0.49a2.92,2.92 0 0 1 -0.62,-2l0,-0.15a3.26,3.26 0 0 1 0.27,-1.37a2.14,2.14 0 0 1 0.79,-0.93a2.19,2.19 0 0 1 1.22,-0.33a2,2 0 0 1 1.43,0.53a1.93,1.93 0 0 1 0.61,1.38l-0.83,0a1.26,1.26 0 0 0 -0.38,-0.84a1.15,1.15 0 0 0 -0.84,-0.33a1.21,1.21 0 0 0 -1,0.5a2.38,2.38 0 0 0 -0.44,1.54l0,0.17a2.33,2.33 0 0 0 0.36,1.41a1.22,1.22 0 0 0 1.09,0.42z"/>
   <path id="svg_14" fill="gray" d="m25.84,33.79l-1.72,0l0,4.55l-0.88,0l0,-4.55l-1.69,0l0,-0.73l4.28,0l0.01,0.73z"/>
   <path id="svg_15" fill="gray" d="m31.02,35.75a3.23,3.23 0 0 1 -0.53,1.92a1.7,1.7 0 0 1 -1.45,0.74a1.85,1.85 0 0 1 -1.49,-0.59l0,2.55l-0.88,0l0,-7.32l0.8,0l0.08,0.62a1.78,1.78 0 0 1 1.49,-0.68a1.73,1.73 0 0 1 1.46,0.72a3.27,3.27 0 0 1 0.54,2l-0.02,0.04zm-0.86,-0.14a2.39,2.39 0 0 0 -0.37,-1.41a1.18,1.18 0 0 0 -1,-0.52a1.28,1.28 0 0 0 -1.19,0.73l0,2.56a1.29,1.29 0 0 0 1.2,0.72a1.18,1.18 0 0 0 1,-0.51a2.61,2.61 0 0 0 0.34,-1.51l0.02,-0.06z"/>
   <path id="svg_16" fill="gray" d="m35.3,38.34a2,2 0 0 1 -0.12,-0.56a1.93,1.93 0 0 1 -1.46,0.65a1.78,1.78 0 0 1 -1.24,-0.44a1.45,1.45 0 0 1 -0.49,-1.12a1.51,1.51 0 0 1 0.56,-1.28a2.81,2.81 0 0 1 1.71,-0.46l0.85,0l0,-0.46a1,1 0 0 0 -0.27,-0.75a1.09,1.09 0 0 0 -0.81,-0.28a1.25,1.25 0 0 0 -0.79,0.24a0.72,0.72 0 0 0 -0.32,0.59l-0.88,0a1.26,1.26 0 0 1 0.27,-0.76a1.87,1.87 0 0 1 0.74,-0.58a2.42,2.42 0 0 1 1,-0.21a2,2 0 0 1 1.39,0.46a1.67,1.67 0 0 1 0.6,1.29l0,2.43a3.05,3.05 0 0 0 0.18,1.16l0,0.08l-0.92,0zm-1.45,-0.67a1.51,1.51 0 0 0 0.78,-0.22a1.31,1.31 0 0 0 0.54,-0.57l0,-1.11l-0.69,0q-1.61,0 -1.61,1a0.83,0.83 0 0 0 0.27,0.66a1,1 0 0 0 0.71,0.24z"/>
   <path id="svg_17" fill="gray" d="m41.6,38.34l-0.88,0l0,-2.26l-2.35,0l0,2.26l-0.88,0l0,-5.29l0.88,0l0,2.29l2.36,0l0,-2.29l0.88,0l-0.01,5.29z"/>
   <path id="svg_18" fill="gray" d="m47.2,38.34l-0.88,0l0,-2.26l-2.35,0l0,2.26l-0.88,0l0,-5.29l0.88,0l0,2.29l2.36,0l0,-2.29l0.88,0l-0.01,5.29z"/>
   <path id="svg_19" fill="gray" d="m49.55,34.88l1.33,0a2,2 0 0 1 1.38,0.47a1.6,1.6 0 0 1 0.51,1.25a1.64,1.64 0 0 1 -0.52,1.27a2,2 0 0 1 -1.4,0.48l-2.16,0l0,-5.3l0.86,0l0,1.83zm0,-1.09l0,2l1.3,0a1.05,1.05 0 0 0 0.76,-0.26a1,1 0 0 0 0.27,-0.72a1,1 0 0 0 -0.26,-0.72a1,1 0 0 0 -0.74,-0.29l-1.33,-0.01zm5,2.72l-0.88,0l0,-3.46l0.88,0l0,3.46z"/>
   <path id="svg_20" fill="gray" d="m59.46,33.05l0.88,0l0,5.28l-0.88,0l0,-3.85l-2.36,3.85l-0.88,0l0,-5.28l0.88,0l0,3.86l2.36,-3.86zm-2.12,1.94a1.23,1.23 0 0 1 -0.39,0.95a1.64,1.64 0 0 1 -2.05,0a1.23,1.23 0 0 1 -0.39,-0.95l3.04,0a0.76,0.76 0 0 0 0.18,0.54a0.69,0.69 0 0 0 0.53,0.19a0.7,0.7 0 0 0 0.52,-0.19a0.73,0.73 0 0 0 0.19,-0.54l-1.63,0z"/>
   <path id="svg_21" fill="gray" d="m68.07,33.05l0,5.28l-0.88,0l0,-2.05l-1.33,0l-1.21,2.06l-0.95,0l1.29,-2.19a1.54,1.54 0 0 1 -0.76,-0.57a1.58,1.58 0 0 1 -0.26,-0.91a1.45,1.45 0 0 1 0.58,-1.17a2.13,2.13 0 0 1 1.41,-0.45l2.11,0zm-3.21,1.62a0.81,0.81 0 0 0 0.26,0.62a1,1 0 0 0 0.68,0.24l1.39,0l0,-1.74l-1.26,0a1.16,1.16 0 0 0 -0.78,0.25a0.81,0.81 0 0 0 -0.29,0.63z"/>
   <path id="svg_22" fill="gray" d="m72.3,34.5a0.71,0.71 0 0 0 -0.27,-0.59a1.18,1.18 0 0 0 -0.75,-0.22a1.2,1.2 0 0 0 -0.77,0.25a0.73,0.73 0 0 0 -0.31,0.59l-0.87,0a1.37,1.37 0 0 1 0.56,-1.13a2.55,2.55 0 0 1 2.8,0a1.37,1.37 0 0 1 0.5,1.14a1.12,1.12 0 0 1 -0.21,0.65a1.43,1.43 0 0 1 -0.59,0.47a1.21,1.21 0 0 1 0.9,1.23a1.38,1.38 0 0 1 -0.55,1.15a2.66,2.66 0 0 1 -2.92,0a1.45,1.45 0 0 1 -0.58,-1.21l0.87,0a0.83,0.83 0 0 0 0.33,0.66a1.26,1.26 0 0 0 0.83,0.28a1.29,1.29 0 0 0 0.81,-0.24a0.84,0.84 0 0 0 0,-1.26a1.34,1.34 0 0 0 -0.8,-0.19l-0.83,0l0,-0.76l1,0q0.85,-0.08 0.85,-0.82z"/>
   <path id="svg_23" fill="gray" d="m75.36,34.88l1.33,0a2,2 0 0 1 1.38,0.47a1.6,1.6 0 0 1 0.48,1.24a1.64,1.64 0 0 1 -0.52,1.27a2,2 0 0 1 -1.4,0.48l-2.14,0l0,-5.29l0.88,0l-0.01,1.83zm0.01,-1.09l0,2l1.3,0a1.05,1.05 0 0 0 0.76,-0.26a1,1 0 0 0 0.27,-0.72a1,1 0 0 0 -0.26,-0.72a1,1 0 0 0 -0.74,-0.29l-1.33,-0.01zm5,2.72l-0.82,0l0,-3.46l0.88,0l-0.06,3.46z"/>
   <path id="svg_24" fill="gray" d="m83.55,36.09l-0.64,0l0,2.25l-0.88,0l0,-5.29l0.88,0l0,2.24l0.57,0l1.73,-2.24l1.06,0l-2,2.54l2.2,2.74l-1.16,0l-1.76,-2.24z"/>
   <path id="svg_25" fill="gray" d="m92.4,34.5a0.71,0.71 0 0 0 -0.27,-0.59a1.18,1.18 0 0 0 -0.75,-0.22a1.2,1.2 0 0 0 -0.77,0.25a0.73,0.73 0 0 0 -0.31,0.59l-0.87,0a1.37,1.37 0 0 1 0.56,-1.13a2.55,2.55 0 0 1 2.8,0a1.37,1.37 0 0 1 0.5,1.14a1.11,1.11 0 0 1 -0.21,0.65a1.43,1.43 0 0 1 -0.59,0.47a1.21,1.21 0 0 1 0.9,1.23a1.38,1.38 0 0 1 -0.55,1.15a2.66,2.66 0 0 1 -2.92,0a1.45,1.45 0 0 1 -0.58,-1.21l0.87,0a0.83,0.83 0 0 0 0.33,0.66a1.26,1.26 0 0 0 0.83,0.28a1.29,1.29 0 0 0 0.81,-0.24a0.84,0.84 0 0 0 0,-1.26a1.34,1.34 0 0 0 -0.8,-0.19l-0.83,0l0,-0.76l1,0q0.85,-0.08 0.85,-0.82z"/>
   <path id="svg_26" fill="gray" d="m97.68,38.34a1.93,1.93 0 0 1 -0.12,-0.56a1.93,1.93 0 0 1 -1.46,0.65a1.78,1.78 0 0 1 -1.24,-0.44a1.45,1.45 0 0 1 -0.49,-1.12a1.51,1.51 0 0 1 0.61,-1.28a2.8,2.8 0 0 1 1.71,-0.46l0.86,0l0,-0.46a1,1 0 0 0 -0.27,-0.75a1.09,1.09 0 0 0 -0.81,-0.28a1.25,1.25 0 0 0 -0.79,0.24a0.73,0.73 0 0 0 -0.32,0.59l-0.88,0a1.27,1.27 0 0 1 0.27,-0.76a1.87,1.87 0 0 1 0.74,-0.58a2.42,2.42 0 0 1 1,-0.21a2,2 0 0 1 1.39,0.46a1.67,1.67 0 0 1 0.54,1.29l0,2.43a3,3 0 0 0 0.13,1.16l0,0.08l-0.87,0zm-1.46,-0.67a1.51,1.51 0 0 0 0.78,-0.22a1.31,1.31 0 0 0 0.54,-0.57l0,-1.11l-0.69,0q-1.61,0 -1.61,1a0.84,0.84 0 0 0 0.27,0.66a1,1 0 0 0 0.71,0.24z"/>
   <path id="svg_27" fill="gray" d="m104.99,38.34l-0.88,0l0,-6l-1.77,0.67l0,-0.84l2.51,-1l0.14,0l0,7.17z"/>
   <path id="svg_28" fill="gray" d="m111,31.22l0,0.77l-0.16,0a2.27,2.27 0 0 0 -1.63,0.63a2.64,2.64 0 0 0 -0.7,1.7a1.85,1.85 0 0 1 1.49,-0.64a1.76,1.76 0 0 1 1.44,0.65a2.94,2.94 0 0 1 0,3.45a2,2 0 0 1 -1.56,0.66a2,2 0 0 1 -1.61,-0.78a3.18,3.18 0 0 1 -0.62,-2l0,-0.35a4.78,4.78 0 0 1 0.81,-3a3,3 0 0 1 2.42,-1.06l0.12,-0.03zm-1.27,3.23a1.37,1.37 0 0 0 -0.83,0.28a1.44,1.44 0 0 0 -0.53,0.7l0,0.33a2.38,2.38 0 0 0 0.38,1.42a1.14,1.14 0 0 0 1,0.54a1.1,1.1 0 0 0 0.93,-0.45a2.21,2.21 0 0 0 0,-2.36a1.09,1.09 0 0 0 -0.84,-0.48l-0.11,0.02z"/>
   <path id="svg_29" fill="gray" d="m119.37,38.34l-0.88,0l0,-1.92a4.52,4.52 0 0 1 -1.19,0.16a1.78,1.78 0 0 1 -2,-2l0,-1.53l0.88,0l0,1.62q0,1.18 1.1,1.18a4.52,4.52 0 0 0 1.19,-0.16l0,-2.64l0.88,0l0.02,5.29z"/>
   <path id="svg_30" fill="gray" d="m123.94,38.34a1.93,1.93 0 0 1 -0.12,-0.56a1.93,1.93 0 0 1 -1.46,0.65a1.78,1.78 0 0 1 -1.24,-0.44a1.45,1.45 0 0 1 -0.49,-1.12a1.51,1.51 0 0 1 0.61,-1.28a2.8,2.8 0 0 1 1.71,-0.46l0.85,0l0,-0.46a1,1 0 0 0 -0.27,-0.75a1.09,1.09 0 0 0 -0.81,-0.28a1.25,1.25 0 0 0 -0.79,0.24a0.73,0.73 0 0 0 -0.32,0.59l-0.88,0a1.27,1.27 0 0 1 0.27,-0.76a1.87,1.87 0 0 1 0.74,-0.58a2.42,2.42 0 0 1 1,-0.21a2,2 0 0 1 1.39,0.46a1.67,1.67 0 0 1 0.52,1.26l0,2.43a3,3 0 0 0 0.18,1.16l0,0.08l-0.89,0.03zm-1.46,-0.67a1.51,1.51 0 0 0 0.78,-0.22a1.31,1.31 0 0 0 0.54,-0.57l0,-1.11l-0.69,0q-1.61,0 -1.61,1a0.84,0.84 0 0 0 0.27,0.66a1,1 0 0 0 0.71,0.24z"/>
   <path id="svg_31" fill="gray" d="m128.11,37.67a1.24,1.24 0 0 0 0.82,-0.29a1,1 0 0 0 0.39,-0.73l0.83,0a1.67,1.67 0 0 1 -0.3,0.86a2,2 0 0 1 -0.75,0.65a2.23,2.23 0 0 1 -2.65,-0.48a2.92,2.92 0 0 1 -0.62,-2l0,-0.15a3.26,3.26 0 0 1 0.28,-1.37a2.14,2.14 0 0 1 0.79,-0.93a2.19,2.19 0 0 1 1.22,-0.33a2,2 0 0 1 1.43,0.53a1.93,1.93 0 0 1 0.61,1.38l-0.83,0a1.26,1.26 0 0 0 -0.38,-0.84a1.15,1.15 0 0 0 -0.84,-0.33a1.21,1.21 0 0 0 -1,0.5a2.38,2.38 0 0 0 -0.37,1.43l0,0.17a2.33,2.33 0 0 0 0.37,1.41a1.22,1.22 0 0 0 1,0.52z"/>
   <path id="svg_32" fill="gray" d="m130.9,35.67a3.2,3.2 0 0 1 0.3,-1.4a2.26,2.26 0 0 1 0.82,-1a2.2,2.2 0 0 1 1.21,-0.34a2.13,2.13 0 0 1 1.69,0.75a2.93,2.93 0 0 1 0.65,2l0,0.06a3.22,3.22 0 0 1 -0.29,1.38a2.18,2.18 0 0 1 -2,1.3a2.13,2.13 0 0 1 -1.73,-0.75a2.91,2.91 0 0 1 -0.65,-2zm0.88,0.11a2.31,2.31 0 0 0 0.4,1.41a1.32,1.32 0 0 0 2.12,0a2.52,2.52 0 0 0 0.39,-1.51a2.31,2.31 0 0 0 -0.4,-1.41a1.26,1.26 0 0 0 -1.06,-0.54a1.25,1.25 0 0 0 -1,0.53a2.51,2.51 0 0 0 -0.45,1.49l0,0.03z"/>
   <path id="svg_33" fill="gray" d="m136.75,38.34l0,-5.29l2,0a2.8,2.8 0 0 1 1.57,0.37a1.22,1.22 0 0 1 0.55,1.08a1.1,1.1 0 0 1 -0.21,0.66a1.33,1.33 0 0 1 -0.63,0.45a1.39,1.39 0 0 1 0.75,0.44a1.16,1.16 0 0 1 0.28,0.78a1.3,1.3 0 0 1 -0.52,1.11a2.42,2.42 0 0 1 -1.47,0.39l-2.32,0.01zm3.2,-3.01l1.13,0q1.23,0 1.23,-0.74t-1.17,-0.77l-1.2,0l0.01,1.51zm0,0.72l0,1.59l1.45,0a1.34,1.34 0 0 0 0.82,-0.21a0.7,0.7 0 0 0 0.27,-0.59q0,-0.79 -1.13,-0.79l-1.41,0z"/>
  </g>
  <path id="svg_34" fill="#fff" d="m150.47,8.47l0,2.56l0.56,0a7.49,7.49 0 0 1 2.54,0.26a1.16,1.16 0 0 1 0.7,0.78a19.8,19.8 0 0 1 0.13,3.06l0,11.78l5.69,0l0,-22l-3.35,0a10.43,10.43 0 0 1 -6.27,3.56z"/>
  <path id="svg_35" fill="#fff" d="m168.02,8.83a1,1 0 0 1 0.32,-0.66a1,1 0 0 1 0.72,-0.26a1.19,1.19 0 0 1 0.82,0.27a1,1 0 0 1 0.34,0.67q0,0.4 0,1.93l5.69,0a7.77,7.77 0 0 0 -0.66,-3.42a4.55,4.55 0 0 0 -2.2,-2.1a9,9 0 0 0 -3.93,-0.75a9.24,9.24 0 0 0 -3.43,0.59a5.18,5.18 0 0 0 -2.34,1.77a5,5 0 0 0 -1,2.5q-0.12,1.32 -0.12,5.24l0,3q0,3.63 0.13,4.9a5.14,5.14 0 0 0 0.93,2.41a5,5 0 0 0 2.33,1.75a9.87,9.87 0 0 0 3.76,0.61a9.05,9.05 0 0 0 3.23,-0.53a5.15,5.15 0 0 0 2.18,-1.48a4.3,4.3 0 0 0 1,-2.08a23.41,23.41 0 0 0 0.18,-3.43l0,-1.71a11.72,11.72 0 0 0 -0.32,-3.08a3.55,3.55 0 0 0 -1.52,-2a4.79,4.79 0 0 0 -2.76,-0.81a4.47,4.47 0 0 0 -2.08,0.44a2.9,2.9 0 0 0 -1.28,1.32l0,-3.45q-0.03,-1.23 0.01,-1.64zm0.23,7.18a1,1 0 0 1 0.87,-0.41a1,1 0 0 1 0.87,0.43a3.33,3.33 0 0 1 0.27,1.6l0,4.11q0,1.52 -0.39,1.86a1.18,1.18 0 0 1 -0.76,0.35a0.92,0.92 0 0 1 -0.87,-0.45a4.43,4.43 0 0 1 -0.26,-1.9l0,-3.93a3.24,3.24 0 0 1 0.28,-1.66l-0.01,0z"/>
  <rect id="svg_38" height="74" width="267" y="-13.366882" x="-16.329987" fill-opacity="null" stroke-opacity="null" stroke-width="1.5" stroke="#000" fill="none"/>
  <rect id="svg_39" height="29" width="16" y="28.633118" x="138.670013" fill-opacity="null" stroke-opacity="null" stroke-width="1.5" stroke="#000" fill="none"/>
  <rect stroke="#000" id="svg_40" height="61.999997" width="192.999995" y="-10.366882" x="-2.329983" stroke-opacity="null" stroke-width="1.5" fill="#ffffff"/>
  <text font-weight="bold" stroke="#000" transform="matrix(0.6785642504692078,0,0,0.7038750648498535,3.1038639564067125,1.073452889919281) " xml:space="preserve" text-anchor="start" font-family="'Times New Roman', Times, serif" font-size="24" id="svg_41" y="24.212411" x="4.775214" stroke-opacity="null" stroke-width="0" fill="#000000">Англис тилин үйрөнүү</text>
  <text font-weight="bold" stroke="#000" transform="matrix(0.578385591506958,0,0,0.4817813634872436,14.189959935843945,14.060728922486305) " xml:space="preserve" text-anchor="start" font-family="'Times New Roman', Times, serif" font-size="24" id="svg_42" y="37.708748" x="30.212113" stroke-opacity="null" stroke-width="0" fill="#ff0000">онлайн сабактар</text>
 </g>
</svg>