<svg xmlns="http://www.w3.org/2000/svg" viewBox="0 0 156.82 65.76"><title>puzzle-english</title><circle cx="22.76" cy="58.18" r="7.59" style="fill:#88ba28"/><path d="M146.76,9.59a12.65,12.65,0,0,0,9.85-14.94,12.65,12.65,0,0,0-9.85-9.85v-5.31a3.37,3.37,0,0,1,3.37-3.37h38.78a3.37,3.37,0,0,1,3.37,3.37V18.27a3.37,3.37,0,0,1-3.37,3.37H150.14a3.37,3.37,0,0,1-3.37-3.37Z" transform="translate(-45.59 34)" style="fill:#e34034"/><circle cx="149.24" cy="31.2" r="7.59" style="fill:#e34034"/><circle cx="123.94" cy="58.18" r="7.59" style="fill:#e34034"/><path d="M96.18,9.59A12.65,12.65,0,0,0,106-5.35a12.65,12.65,0,0,0-9.85-9.85v-5.31a3.37,3.37,0,0,1,3.37-3.37h38.78a3.37,3.37,0,0,1,3.37,3.37V18.27a3.37,3.37,0,0,1-3.37,3.37H99.55a3.37,3.37,0,0,1-3.37-3.37Z" transform="translate(-45.59 34)" style="fill:#f2ad29"/><circle cx="98.65" cy="31.2" r="7.59" style="fill:#f2ad29"/><circle cx="73.35" cy="7.59" r="7.59" style="fill:#f2ad29"/><rect y="10.12" width="45.53" height="45.53" rx="3.37" ry="3.37" style="fill:#88ba28"/><circle cx="48.06" cy="31.2" r="7.59" style="fill:#88ba28"/><path d="M61.05,6.47,66.38-9.2h4L75.74,6.47H71.79l-1-3.29H65.94L65,6.47ZM66.84.11h3.09l-.88-3c-.28-1-.64-2.7-.64-2.7h0s-.35,1.71-.64,2.7Zm48.38,6.36V-9.2H121c3.13,0,5.33,1.4,5.33,4.1a3.83,3.83,0,0,1-1.82,3.33v0A3.51,3.51,0,0,1,127,1.8c0,3.42-2.85,4.67-6,4.67Zm3.84-9.6h2a1.33,1.33,0,0,0,1.38-1.45A1.28,1.28,0,0,0,121-5.92h-1.91v2.78Zm0,6.31h2.3A1.56,1.56,0,0,0,123,1.54a1.51,1.51,0,0,0-1.64-1.6h-2.33V3.18ZM163.4-1.4a7.79,7.79,0,0,0,8.22,8.13,8.55,8.55,0,0,0,6.31-2.63L176,1.3a6.19,6.19,0,0,1-4.17,1.93c-3,0-4.43-2.39-4.43-4.71A4.16,4.16,0,0,1,171.8-6a6.41,6.41,0,0,1,3.92,1.6l1.78-2.89a8.43,8.43,0,0,0-5.87-2.21A7.9,7.9,0,0,0,163.4-1.4Z" transform="translate(-45.59 34)" style="fill:#fff"/></svg>