<svg xmlns="http://www.w3.org/2000/svg" viewBox="0 0 269.35 61.49"><title>sliderate</title><rect x="0.25" y="2.66" width="12.92" height="38.5" style="fill:#025000"/><path d="M13.42,2H0V41H13.42Zm-.25,38.75H.25V2.25H13.17Z" transform="translate(0 0.41)" style="fill:#b3b3b3"/><rect x="18.42" y="4.98" width="12.92" height="36.18" style="fill:#0e6000"/><path d="M31.6,4.32H18.17V41H31.6Zm-.25,36.43H18.42V4.57H31.35Z" transform="translate(0 0.41)" style="fill:#b3b3b3"/><rect x="36.59" y="6.94" width="12.92" height="34.22" style="fill:#036f00"/><path d="M49.77,6.28H36.34V41H49.77Zm-.25,34.47H36.59V6.53H49.52Z" transform="translate(0 0.41)" style="fill:#b3b3b3"/><rect x="54.77" y="8.45" width="12.92" height="32.71" style="fill:#288900"/><path d="M67.94,7.79H54.52V41H67.94Zm-.25,33H54.77V8H67.69Z" transform="translate(0 0.41)" style="fill:#b3b3b3"/><rect x="72.94" y="10.41" width="12.92" height="30.75" style="fill:#259200"/><path d="M86.11,9.75H72.69V41H86.11Zm-.25,31H72.94V10H85.86Z" transform="translate(0 0.41)" style="fill:#b3b3b3"/><rect x="91.11" y="12.37" width="12.92" height="28.79" style="fill:#63b100"/><path d="M104.28,11.71H90.86V41h13.42Zm-.25,29H91.11V12H104Z" transform="translate(0 0.41)" style="fill:#b3b3b3"/><rect x="109.28" y="14.19" width="12.92" height="26.97" style="fill:#91c401"/><path d="M109,13.53V41h13.42V13.53ZM122.2,40.75H109.28v-27H122.2Z" transform="translate(0 0.41)" style="fill:#b3b3b3"/><rect x="127.45" y="16" width="12.92" height="25.16" style="fill:#bdc400"/><path d="M140.63,15.34H127.2V41h13.42Zm-.25,25.41H127.45V15.59h12.92Z" transform="translate(0 0.41)" style="fill:#b3b3b3"/><rect x="145.62" y="17.66" width="12.92" height="23.5" style="fill:#ffc000"/><path d="M158.8,17H145.37V41H158.8Zm-.25,23.75H145.62V17.25h12.92Z" transform="translate(0 0.41)" style="fill:#b3b3b3"/><rect x="163.8" y="19.62" width="12.92" height="21.54" style="fill:#ff9000"/><path d="M177,19H163.55V41H177Zm-.25,21.79H163.8V19.21h12.92Z" transform="translate(0 0.41)" style="fill:#b3b3b3"/><rect x="181.97" y="21.43" width="12.92" height="19.73" style="fill:#ff6000"/><path d="M195.14,20.77H181.72V41h13.42Zm-.25,20H182V21h12.92Z" transform="translate(0 0.41)" style="fill:#b3b3b3"/><rect x="236.99" y="27.2" width="12.92" height="13.89" style="fill:#d00"/><path d="M250.17,26.54H236.74V40.93h13.42Zm-.25,14.14H237V26.79h12.92Z" transform="translate(0 0.41)" style="fill:#b3b3b3"/><rect x="255.51" y="28.94" width="12.92" height="12.15" style="fill:#ba0400"/><path d="M255.26,28.28V40.93h13.42V28.28Zm13.17,12.4H255.51V28.53h12.92Z" transform="translate(0 0.41)" style="fill:#b3b3b3"/><rect x="200.14" y="23.39" width="12.92" height="17.77" style="fill:#ff4000"/><path d="M213.31,22.73H199.89V41h13.42Zm-.25,18H200.14V23h12.92Z" transform="translate(0 0.41)" style="fill:#b3b3b3"/><rect x="218.31" y="25.2" width="12.92" height="15.96" style="fill:#ff2000"/><path d="M231.48,24.54H218.06V41h13.42Zm-.25,16.21H218.31v-16h12.92Z" transform="translate(0 0.41)" style="fill:#b3b3b3"/><polygon points="267.25 49.66 267.14 59.49 263.48 59.49 263.58 51.75 262.58 51.74 262.48 59.49 258.98 59.49 259.08 51.75 258.08 51.74 257.98 59.49 254.47 59.49 254.58 51.75 253.58 51.74 253.47 59.49 250.31 59.49 250.41 51.75 249.41 51.74 249.31 59.49 246.06 59.49 246.16 51.67 245.16 51.65 245.06 59.49 241.96 59.49 242.08 49.34 241.08 49.33 240.96 59.49 237.81 59.49 237.91 51.75 236.91 51.74 236.81 59.49 233.06 59.49 233.16 51.75 232.16 51.74 232.06 59.49 228.31 59.49 228.41 51.83 227.41 51.82 227.31 59.49 223.64 59.49 223.75 51.83 222.75 51.82 222.64 59.49 219.14 59.49 219.25 51.83 218.25 51.82 218.14 59.49 214.64 59.49 214.75 51.83 213.75 51.82 213.64 59.49 210.48 59.49 210.58 51.83 209.58 51.82 209.48 59.49 206.22 59.49 206.33 51.75 205.33 51.74 205.22 59.49 202.12 59.49 202.25 49.42 201.25 49.41 201.12 59.49 198.14 59.49 198.25 51.83 197.25 51.82 197.14 59.49 193.39 59.49 193.5 51.83 192.5 51.82 192.39 59.49 188.64 59.49 188.75 51.92 187.75 51.9 187.64 59.49 183.98 59.49 184.08 51.92 183.08 51.9 182.98 59.49 179.48 59.49 179.58 51.92 178.58 51.9 178.48 59.49 174.98 59.49 175.08 51.92 174.08 51.9 173.98 59.49 170.81 59.49 170.91 51.92 169.91 51.9 169.81 59.49 166.56 59.49 166.66 51.83 165.66 51.82 165.56 59.49 162.46 59.49 162.58 49.51 161.58 49.49 161.46 59.49 157.72 59.49 157.83 51.75 156.83 51.74 156.72 59.49 152.97 59.49 153.08 51.75 152.08 51.74 151.97 59.49 148.23 59.49 148.33 51.83 147.33 51.82 147.23 59.49 143.56 59.49 143.66 51.83 142.66 51.82 142.56 59.49 139.06 59.49 139.16 51.83 138.16 51.82 138.06 59.49 134.56 59.49 134.66 51.83 133.66 51.82 133.56 59.49 130.39 59.49 130.5 51.83 129.5 51.82 129.39 59.49 126.14 59.49 126.25 51.75 125.25 51.74 125.14 59.49 122.04 59.49 122.16 49.42 121.16 49.41 121.04 59.49 117.73 59.49 117.83 51.83 116.83 51.82 116.73 59.49 112.98 59.49 113.08 51.83 112.08 51.82 111.98 59.49 108.23 59.49 108.33 51.92 107.33 51.9 107.23 59.49 103.56 59.49 103.66 51.92 102.66 51.9 102.56 59.49 99.06 59.49 99.16 51.92 98.16 51.9 98.06 59.49 94.56 59.49 94.66 51.92 93.66 51.9 93.56 59.49 90.39 59.49 90.5 51.92 89.5 51.9 89.39 59.49 86.14 59.49 86.25 51.83 85.25 51.82 85.14 59.49 82.04 59.49 82.16 49.51 81.16 49.49 81.04 59.49 77.64 59.49 77.75 51.83 76.75 51.82 76.64 59.49 72.89 59.49 73 51.83 72 51.82 71.89 59.49 68.14 59.49 68.25 51.92 67.25 51.9 67.14 59.49 63.48 59.49 63.58 51.92 62.58 51.9 62.48 59.49 58.98 59.49 59.08 51.92 58.08 51.9 57.98 59.49 54.48 59.49 54.58 51.92 53.58 51.9 53.48 59.49 50.31 59.49 50.41 51.92 49.41 51.9 49.31 59.49 46.06 59.49 46.16 51.83 45.16 51.82 45.06 59.49 41.96 59.49 42.08 49.51 41.08 49.49 40.96 59.49 37.56 59.49 37.66 51.75 36.66 51.74 36.56 59.49 32.81 59.49 32.91 51.75 31.91 51.74 31.81 59.49 28.06 59.49 28.16 51.83 27.16 51.82 27.06 59.49 23.39 59.49 23.5 51.83 22.5 51.82 22.39 59.49 18.89 59.49 19 51.83 18 51.82 17.89 59.49 14.39 59.49 14.49 51.83 13.49 51.82 13.39 59.49 10.23 59.49 10.33 51.83 9.33 51.82 9.23 59.49 5.97 59.49 6.08 51.75 5.08 51.74 4.97 59.49 1.87 59.49 2 49.42 0.99 49.41 0.87 59.49 0.87 59.49 0.87 61.49 268.12 61.49 268.12 61.13 268.25 49.68 267.25 49.66" style="fill:#b3b3b3"/><text transform="translate(154.54 9.41)" style="font-size:11px;fill:#b3b3b3;font-family:Roboto-Regular, Roboto">час<tspan x="17.72" y="0" style="letter-spacing:-0.015092329545454546em">т</tspan><tspan x="22.84" y="0" style="letter-spacing:-0.014204545454545454em">о</tspan><tspan x="28.96" y="0" style="letter-spacing:-0.0078125em">т</tspan><tspan x="34.15" y="0" style="letter-spacing:0.0000887784090909091em">а уп</tspan><tspan x="54.41" y="0" style="letter-spacing:-0.014115767045454546em">о</tspan><tspan x="60.53" y="0">требления</tspan></text></svg>