<svg xmlns="http://www.w3.org/2000/svg" viewBox="0 0 112.34 29.97"><title>litres</title><path d="M21.89,23.45c.33,0,.39-.09.39-.36q0-5,0-10t0-10c0-.22,0-.33-.33-.33H8.72c-.26,0-.34.05-.35.29,0,1.2,0,2.4-.1,3.59a55.55,55.55,0,0,1-.89,8.89,8.2,8.2,0,0,1-1.23,3.32,2.29,2.29,0,0,1-2.45.93c-.23,0-.29,0-.32.2-.14,1-.28,2-.45,3,0,.23.1.29.29.35A6.41,6.41,0,0,0,8.07,23a5.71,5.71,0,0,0,2.64-3,18.83,18.83,0,0,0,1.38-5.64c.32-2.55.43-5.11.56-7.67,0-.25.09-.31.37-.31,1.41,0,2.81,0,4.22,0,.39,0,.45.11.45.42,0,5.43,0,10.87,0,16.3,0,.25,0,.34.37.34Q20,23.42,21.89,23.45Z" transform="translate(-2.82 -2.5)" style="fill:#1c1b19"/><path d="M69.88,16.17c2.68-.55,4.68-1.83,5.7-4.14A7.14,7.14,0,0,0,76,8.59a5.76,5.76,0,0,0-3.67-5.08,13.94,13.94,0,0,0-5.54-1,39.49,39.49,0,0,0-6.66.41c-.36.05-.49.14-.49.48,0,3.27,0,6.55,0,9.82s0,6.57,0,9.86c0,.3.1.37.43.37q1.89,0,3.77,0c.33,0,.43-.06.43-.37,0-2.12,0-4.25,0-6.37,0-.28.08-.36.41-.33A18.33,18.33,0,0,0,69.88,16.17ZM64.27,12.4c0-1,0-1.94,0-2.91s0-2,0-3.06c0-.19,0-.31.28-.34a11.78,11.78,0,0,1,4.14.15,3,3,0,0,1,2.51,3.27A3.74,3.74,0,0,1,70.86,11a3.7,3.7,0,0,1-3,1.83,15,15,0,0,1-3,.07C64.44,12.88,64.25,12.8,64.27,12.4Z" transform="translate(-2.82 -2.5)" style="fill:#df5431"/><path d="M39.86,8.69c-.67,0-1.35,0-2,0a.57.57,0,0,0-.5.22c-.8.93-1.62,1.84-2.41,2.77a42.7,42.7,0,0,0-4.75,5.92.72.72,0,0,1-.13.13l-.09,0c.07-.67.19-1.34.2-2,0-2.25,0-4.51,0-6.76,0-.19-.07-.24-.28-.24H26.08c-.23,0-.29.06-.29.26q0,7.12,0,14.23c0,.24.1.26.33.26.7,0,1.41,0,2.11,0a.62.62,0,0,0,.54-.24c1.21-1.36,2.43-2.73,3.66-4.08a26.88,26.88,0,0,0,3.46-4.37s0-.11.13-.11,0,.13,0,.2c-.25,2.77-.09,5.55-.14,8.32,0,.22.07.27.32.27,1.24,0,2.49,0,3.73,0,.28,0,.33-.09.32-.3,0-.39,0-.78,0-1.17q0-6.46,0-12.92C40.28,8.75,40.19,8.68,39.86,8.69Z" transform="translate(-2.82 -2.5)" style="fill:#1c1b19"/><path d="M86.87,23.68a11.25,11.25,0,0,0,3.9-1.32c.22-.13.28-.23.14-.45-.36-.6-.69-1.2-1-1.82-.13-.26-.24-.28-.53-.17a10,10,0,0,1-4.86.81,3.43,3.43,0,0,1-2.92-1.82,5.45,5.45,0,0,1-.46-1.5c-.05-.28,0-.39.39-.39,1.55,0,3.11,0,4.66,0h4.66c.28,0,.42,0,.47-.32a10.48,10.48,0,0,0,.11-4.07,5.12,5.12,0,0,0-4.17-4.09,10.92,10.92,0,0,0-4.33-.14c-2.72.43-4.67,1.72-5.53,4.06a10.11,10.11,0,0,0,.09,7.43,5.93,5.93,0,0,0,4.67,3.71A13.12,13.12,0,0,0,86.87,23.68Zm-5.59-9.37a4.19,4.19,0,0,1,1-2.14c.94-1.06,3.71-1.27,4.69,0a3.21,3.21,0,0,1,.55,2.38c0,.2-.22.14-.35.14h-2.8v0c-.93,0-1.86,0-2.8,0C81.31,14.62,81.24,14.56,81.28,14.31Z" transform="translate(-2.82 -2.5)" style="fill:#df5431"/><path d="M56.45,12.1c.28,0,.37-.05.36-.31,0-.92,0-1.85,0-2.77,0-.28-.1-.32-.39-.32H43.17c-.25,0-.35,0-.34.28q0,1.4,0,2.81c0,.25.08.31.36.31,1.34,0,2.68,0,4,0,.36,0,.44.08.44.39,0,3.53,0,7.07,0,10.6,0,.33.11.38.45.38,1.22,0,2.43,0,3.65,0,.37,0,.44-.09.44-.39,0-3.55,0-7.09,0-10.64,0-.27.07-.34.38-.33C53.83,12.1,55.14,12.08,56.45,12.1Z" transform="translate(-2.82 -2.5)" style="fill:#1c1b19"/><path d="M106.6,22.91c-.14-.64-.29-1.28-.44-1.91-.11-.46-.11-.44-.66-.39a14.83,14.83,0,0,1-3.43.12,3.67,3.67,0,0,1-3.24-2.29,6.87,6.87,0,0,1-.38-2.34,12.61,12.61,0,0,1,.14-1.35,4,4,0,0,1,3.48-3.33,10.25,10.25,0,0,1,3.42.08c.25,0,.33,0,.38-.2.16-.76.33-1.51.52-2.26.06-.24,0-.3-.28-.35a16.12,16.12,0,0,0-5.39-.2c-2.82.42-5,1.69-6,4.06a8.26,8.26,0,0,0,.45,7.87,6.48,6.48,0,0,0,4.1,3,14.46,14.46,0,0,0,7.19-.11C106.71,23.23,106.63,23.06,106.6,22.91Z" transform="translate(-2.82 -2.5)" style="fill:#df5431"/><path d="M112.67,12.9a2.33,2.33,0,0,0,2.5-2.17,2.31,2.31,0,0,0-2.45-2.17,2.36,2.36,0,0,0-2.51,2.17A2.36,2.36,0,0,0,112.67,12.9Z" transform="translate(-2.82 -2.5)" style="fill:#df5431"/><path d="M112.69,19.31a2.37,2.37,0,0,0-2.49,2.16,2.35,2.35,0,0,0,2.49,2.19,2.32,2.32,0,0,0,2.48-2.15A2.33,2.33,0,0,0,112.69,19.31Z" transform="translate(-2.82 -2.5)" style="fill:#df5431"/><path d="M7.88,28.19A2.53,2.53,0,0,1,5.3,30.94a2.46,2.46,0,0,1-2.48-2.66,2.53,2.53,0,0,1,2.57-2.75A2.45,2.45,0,0,1,7.88,28.19Zm-4.11.05c0,1.13.65,2,1.57,2s1.57-.85,1.57-2c0-.88-.44-2-1.55-2S3.77,27.26,3.77,28.25Z" transform="translate(-2.82 -2.5)" style="fill:#df5431"/><path d="M13,25.65v4.47h.53l-.05,2.34h-.74l0-1.65H9.13l0,1.65H8.35l0-2.34h.44a4,4,0,0,0,.51-1.06A6.84,6.84,0,0,0,9.55,27V25.65Zm-2.62,1.57a6.85,6.85,0,0,1-.27,1.92,4.91,4.91,0,0,1-.42,1h2.39V26.36h-1.7Z" transform="translate(-2.82 -2.5)" style="fill:#df5431"/><path d="M15.54,25.65v2.18c0,.82,0,1.34-.05,2.08h0c.31-.63.49-1,.83-1.59L18,25.65h1.1v5.18h-.9V28.63c0-.85,0-1.28.06-2.12h0c-.33.66-.56,1.08-.86,1.6-.49.8-1.06,1.8-1.62,2.71H14.65V25.65Z" transform="translate(-2.82 -2.5)" style="fill:#df5431"/><path d="M21.51,25.65v2.09H24V25.65h.93v5.18H24V28.48H21.51v2.34h-.93V25.65Z" transform="translate(-2.82 -2.5)" style="fill:#df5431"/><path d="M31.91,25.65v2.25h.22l1.95-2.25h1.14L33,28c.83.09,1.34.64,1.74,1.57a11,11,0,0,0,.56,1.26h-1a6.89,6.89,0,0,1-.48-1.06,1.68,1.68,0,0,0-1.71-1.22h-.18v2.28H31V25.65Z" transform="translate(-2.82 -2.5)" style="fill:#df5431"/><path d="M40.28,25.65v5.18h-.93V26.38H37.57v1.35c0,1.45-.14,2.43-.81,2.87a1.51,1.51,0,0,1-1,.32l-.1-.74a1.17,1.17,0,0,0,.51-.21c.48-.35.54-1.08.54-2.24V25.65Z" transform="translate(-2.82 -2.5)" style="fill:#df5431"/><path d="M42.69,25.65v2.18c0,.82,0,1.34-.05,2.08h0c.31-.63.49-1,.83-1.59l1.62-2.67h1.1v5.18h-.9V28.63c0-.85,0-1.28.06-2.12h0c-.33.66-.56,1.08-.86,1.6-.49.8-1.06,1.8-1.62,2.71H41.8V25.65Z" transform="translate(-2.82 -2.5)" style="fill:#df5431"/><path d="M48.68,25.65v2.25h.22l1.95-2.25H52L49.74,28c.83.09,1.34.64,1.74,1.57A11,11,0,0,0,52,30.82h-1a6.89,6.89,0,0,1-.48-1.06,1.68,1.68,0,0,0-1.71-1.22h-.18v2.28h-.93V25.65Z" transform="translate(-2.82 -2.5)" style="fill:#df5431"/><path d="M63.48,25.26v4.47H64L64,32.09h-.74l0-1.65H59.59l0,1.65h-.74l0-2.34h.44a4,4,0,0,0,.51-1.06,6.84,6.84,0,0,0,.3-2.06V25.26Zm-2.62,1.57a6.85,6.85,0,0,1-.27,1.92,4.91,4.91,0,0,1-.42,1h2.39V26h-1.7Z" transform="translate(-2.82 -2.5)" style="fill:#1c1b19"/><path d="M69.78,27.81a2.53,2.53,0,0,1-2.58,2.75,2.46,2.46,0,0,1-2.48-2.66,2.53,2.53,0,0,1,2.57-2.75A2.45,2.45,0,0,1,69.78,27.81Zm-4.11.05c0,1.13.65,2,1.57,2s1.57-.85,1.57-2c0-.88-.44-2-1.55-2S65.67,26.88,65.67,27.86Z" transform="translate(-2.82 -2.5)" style="fill:#1c1b19"/><path d="M76.44,25.26v2.25h.23l1.95-2.25h1.14L77.5,27.61c.83.09,1.34.64,1.74,1.57a11.05,11.05,0,0,0,.56,1.26h-1a7,7,0,0,1-.48-1.06,1.68,1.68,0,0,0-1.71-1.22h-.18v2.28h-.93V25.26Z" transform="translate(-2.82 -2.5)" style="fill:#1c1b19"/><path d="M81.54,25.26v2.09H84V25.26h.93v5.18H84V28.1H81.54v2.34h-.93V25.26Z" transform="translate(-2.82 -2.5)" style="fill:#1c1b19"/><path d="M87.34,25.26v2.18c0,.82,0,1.34-.05,2.08h0c.31-.63.49-1,.83-1.59l1.62-2.67h1.1v5.18H90V28.25c0-.85,0-1.28.06-2.12h0c-.33.66-.56,1.08-.86,1.6-.49.8-1.06,1.8-1.62,2.71H86.46V25.26Z" transform="translate(-2.82 -2.5)" style="fill:#1c1b19"/><path d="M95.56,25.26V26H93.31v4.42h-.93V25.26Z" transform="translate(-2.82 -2.5)" style="fill:#1c1b19"/></svg>