<svg xmlns="http://www.w3.org/2000/svg" viewBox="0 0 113.49 31.17"><title>ozon</title><path d="M29.37,18.42c3,0,6.06,0,9.09,0,.52,0,.82.11.86,1a18.2,18.2,0,0,0,.33,2.55c.14.73,0,1-.53.94-1.92,0-3.84,0-5.77,0H25.44A2,2,0,0,1,23.27,21a3.36,3.36,0,0,1,1-3.35L33,8.62l.76-.82c-.42,0-.68-.06-.93-.06-2.79,0-5.57,0-8.36,0-.5,0-.76-.13-.82-.91-.07-1-.22-1.92-.37-2.86-.08-.55,0-.73.44-.73,4.66,0,9.32,0,14,0a2.11,2.11,0,0,1,2,1.89,3.23,3.23,0,0,1-.88,3.14L30,17.5l-.69.72Z" transform="translate(-2.57 -3)" style="fill:#0082c8"/><path d="M63.41,15.79c.07-1.85-.15-4.12.1-6.35C63.93,5.74,66.17,3,68.83,3c2.37,0,4.73,0,7.1,0,3,0,5.39,3.21,5.47,7.43.07,3.88,0,7.77,0,11.66,0,.64-.18.75-.57.73a18.11,18.11,0,0,0-2.29,0c-.54,0-.71-.17-.7-1,0-3.4,0-6.8,0-10.2,0-2.77-1-4.18-2.94-4.2q-2.51,0-5,0c-2,0-2.94,1.42-2.94,4.19,0,3.4,0,6.8,0,10.2,0,.79-.15,1-.7,1a18.09,18.09,0,0,0-2.37,0c-.4,0-.5-.18-.5-.72C63.42,20.14,63.41,18.17,63.41,15.79Z" transform="translate(-2.57 -3)" style="fill:#0083c8"/><path d="M98.88,10.07c0-2,0-4,0-6,0-.58.11-.8.54-.78a18.79,18.79,0,0,0,2.36,0c.52,0,.66.21.66.93,0,3.43,0,6.87,0,10.3,0,2.77,1,4.14,3,4.15,1.43,0,2.86,0,4.29,0,1.76,0,2.8-1.48,2.8-4,0-3.4,0-6.8,0-10.2,0-1,.21-1.31.91-1.22a15.49,15.49,0,0,0,2.14,0c.3,0,.52,0,.52.59-.06,4.23.18,8.47-.11,12.69-.27,3.76-2.58,6.51-5.26,6.55-2.14,0-4.29,0-6.43,0-2.91-.05-5.24-3.3-5.32-7.4,0-1.87,0-3.75,0-5.62Z" transform="translate(-2.57 -3)" style="fill:#00b5ef"/><path d="M88.39,16.16c0-1.74,0-3.47,0-5.21,0-4.06,2.22-7.39,5.09-7.65.81-.07,1.63,0,2.44,0,.38,0,.55.13.46.71-.16,1.09-.3,2.18-.42,3.27,0,.45-.2.58-.49.56s-.59,0-.89,0c-1.61,0-2.65,1.44-2.67,3.7q0,5.15,0,10.31c0,.79-.11,1.12-.72,1.06a14.25,14.25,0,0,0-2.29,0c-.43,0-.54-.18-.54-.77C88.4,20.11,88.39,18.14,88.39,16.16Z" transform="translate(-2.57 -3)" style="fill:#00b5ef"/><path d="M13.41,27.3a2.4,2.4,0,0,1,2.52,2.41,2.44,2.44,0,0,1-2.58,2.37,2.42,2.42,0,0,1-2.52-2.43A2.39,2.39,0,0,1,13.41,27.3Z" transform="translate(-2.57 -3)" style="fill:#8dc43e"/><path d="M28.63,27.3a2.41,2.41,0,0,1,2.53,2.4,2.55,2.55,0,0,1-5.09,0A2.39,2.39,0,0,1,28.63,27.3Z" transform="translate(-2.57 -3)" style="fill:#ed4130"/><path d="M8.31,29.71a2.41,2.41,0,0,1-2.56,2.38,2.41,2.41,0,0,1-2.51-2.43A2.38,2.38,0,0,1,5.8,27.3,2.37,2.37,0,0,1,8.31,29.71Z" transform="translate(-2.57 -3)" style="fill:#0083c8"/><path d="M21,27.3a2.38,2.38,0,0,1,2.53,2.39A2.41,2.41,0,0,1,21,32.08a2.39,2.39,0,0,1-2.52-2.41A2.35,2.35,0,0,1,21,27.3Z" transform="translate(-2.57 -3)" style="fill:#f79f1b"/><path d="M33.71,29.61a2.34,2.34,0,0,1,2.59-2.31,2.37,2.37,0,0,1,2.47,2.45,2.43,2.43,0,0,1-2.61,2.33A2.37,2.37,0,0,1,33.71,29.61Z" transform="translate(-2.57 -3)" style="fill:#aa499b"/><path d="M86.2,21c0,1.36-.36,1.83-1.36,1.82s-1.3-.55-1.3-1.83.41-1.89,1.35-1.9S86.21,19.66,86.2,21Z" transform="translate(-2.57 -3)" style="fill:#02b6ef"/><path d="M60.4,10.6C60.37,6.44,58,3.07,55,3c-1.28,0-2.56,0-3.85,0s-2.61,0-3.92,0c-2.57.08-4.79,2.81-5.18,6.37A54.45,54.45,0,0,0,42,15.53c0,4.17,2.4,7.52,5.37,7.56q3.84.06,7.69,0c3,0,5.32-3.43,5.35-7.6Q60.42,13,60.4,10.6Zm-3.53,4.16c0,2.23-1.18,3.83-2.78,3.88-1,0-2,0-3,0s-1.87,0-2.81,0c-1.64,0-2.79-1.63-2.83-3.91,0-1.14,0-2.29,0-3.43,0-2.26,1-3.73,2.63-3.79,2-.07,4.09-.07,6.13,0,1.6.06,2.57,1.55,2.6,3.82Q56.9,13,56.88,14.75Z" transform="translate(-2.57 -3)" style="fill:#0082c8"/><path d="M21,10.55C20.93,6.35,18.58,3.05,15.6,3Q11.79,3,8,3c-2.91,0-5.27,3.26-5.37,7.35,0,1.77,0,3.54,0,5.31C2.71,19.85,5,23,8,23.1c1.26,0,2.51,0,3.77,0s2.51,0,3.77,0c3,0,5.39-3.28,5.45-7.55Q21,13.05,21,10.55ZM17.48,14.7c0,2.36-1.19,3.92-2.89,3.94-.93,0-1.87,0-2.81,0s-1.92,0-2.88,0c-1.63,0-2.76-1.65-2.78-4q0-1.66,0-3.33c0-2.28,1-3.77,2.58-3.84q3.1-.12,6.2,0c1.56.06,2.53,1.54,2.57,3.76Q17.52,13,17.48,14.7Z" transform="translate(-2.57 -3)" style="fill:#0082c8"/><text transform="translate(39.34 28.83)" style="font-size:9.333333015441895px;fill:#0082c8;font-family:MyriadPro-Regular, Myriad Pro">кни<tspan x="14.74" y="0" style="letter-spacing:-0.006958008049488342em">г</tspan><tspan x="18.27" y="0">и с </tspan><tspan x="31.57" y="0" style="letter-spacing:-0.004028320449703777em">д</tspan><tspan x="36.48" y="0">о</tspan><tspan x="41.61" y="0" style="letter-spacing:0.0160086500988228em">с</tspan><tspan x="45.94" y="0" style="letter-spacing:-0.014020647798968989em">т</tspan><tspan x="49.64" y="0" style="letter-spacing:-0.00005231584999615295em">ав</tspan><tspan x="58.81" y="0" style="letter-spacing:-0.006068638599553742em">к</tspan><tspan x="63.22" y="0">ой</tspan></text></svg>